<svg width="30" height="30" viewBox="0 0 30 30" fill="none" xmlns="http://www.w3.org/2000/svg">
<path d="M10.9098 20.1108L14.9994 24.2005L19.0891 20.1108" stroke="#DA291C" stroke-linecap="round" stroke-linejoin="round"/>
<path d="M14.9994 14.999V24.2008" stroke="#DA291C" stroke-linecap="round" stroke-linejoin="round"/>
<path d="M24.0785 21.2253C24.9674 20.6003 25.6339 19.7082 25.9815 18.6786C26.329 17.6491 26.3395 16.5355 26.0113 15.4996C25.683 14.4637 25.0333 13.5593 24.1563 12.9178C23.2792 12.2762 22.2206 11.9307 21.1339 11.9316H19.8457C19.5382 10.7332 18.9628 9.62014 18.1629 8.67628C17.363 7.73242 16.3594 6.98232 15.2276 6.48245C14.0959 5.98258 12.8655 5.74598 11.629 5.79044C10.3926 5.8349 9.18239 6.15928 8.08947 6.73915C6.99655 7.31902 6.04941 8.13927 5.31937 9.13815C4.58933 10.137 4.0954 11.2885 3.87477 12.5059C3.65414 13.7233 3.71256 14.9749 4.04563 16.1664C4.37871 17.358 4.97775 18.4585 5.79767 19.385" stroke="#DA291C" stroke-linecap="round" stroke-linejoin="round"/>
</svg>
